{
	"asset":{
		"generator":"Khronos glTF Blender I/O v5.1.20",
		"version":"2.0"
	},
	"scene":0,
	"scenes":[
		{
			"name":"Scene",
			"nodes":[
				0
			]
		}
	],
	"nodes":[
		{
			"mesh":0,
			"name":"coast_line_02"
		}
	],
	"materials":[
		{
			"doubleSided":true,
			"name":"coast_line_02",
			"normalTexture":{
				"index":0
			},
			"pbrMetallicRoughness":{
				"baseColorTexture":{
					"index":1
				},
				"metallicFactor":0,
				"metallicRoughnessTexture":{
					"index":2
				}
			}
		}
	],
	"meshes":[
		{
			"name":"coast_line_02",
			"primitives":[
				{
					"attributes":{
						"POSITION":0,
						"NORMAL":1,
						"TEXCOORD_0":2
					},
					"indices":3,
					"material":0
				}
			]
		}
	],
	"textures":[
		{
			"sampler":0,
			"source":0
		},
		{
			"sampler":0,
			"source":1
		},
		{
			"sampler":0,
			"source":2
		}
	],
	"images":[
		{
			"mimeType":"image/png",
			"name":"coast_line_02_nor_gl",
			"uri":"coast_line_02_nor_gl.png"
		},
		{
			"mimeType":"image/jpeg",
			"name":"coast_line_02_diff",
			"uri":"coast_line_02_diff.jpg"
		},
		{
			"mimeType":"image/png",
			"name":"coast_line_02_rough",
			"uri":"coast_line_02_rough.png"
		}
	],
	"accessors":[
		{
			"bufferView":0,
			"componentType":5126,
			"count":49595,
			"max":[
				22.91156005859375,
				1.702430248260498,
				12.476956367492676
			],
			"min":[
				-22.732181549072266,
				-0.6031083464622498,
				-10.80103874206543
			],
			"type":"VEC3"
		},
		{
			"bufferView":1,
			"componentType":5126,
			"count":49595,
			"type":"VEC3"
		},
		{
			"bufferView":2,
			"componentType":5126,
			"count":49595,
			"type":"VEC2"
		},
		{
			"bufferView":3,
			"componentType":5123,
			"count":283848,
			"type":"SCALAR"
		}
	],
	"bufferViews":[
		{
			"buffer":0,
			"byteLength":595140,
			"byteOffset":0,
			"target":34962
		},
		{
			"buffer":0,
			"byteLength":595140,
			"byteOffset":595140,
			"target":34962
		},
		{
			"buffer":0,
			"byteLength":396760,
			"byteOffset":1190280,
			"target":34962
		},
		{
			"buffer":0,
			"byteLength":567696,
			"byteOffset":1587040,
			"target":34963
		}
	],
	"samplers":[
		{
			"magFilter":9729,
			"minFilter":9987
		}
	],
	"buffers":[
		{
			"byteLength":2154736,
			"uri":"coast_line_02_4k.bin"
		}
	]
}
